PathFileType	4	(X/Y/Z)	D:\Documents\Paper\paper_current\paper_step_1_data\data_step_3\marker\70DL\subject_01.tsv
DataRate	CameraRate	NumFrames	NumMarkers	Units	OrigDataRate	OrigDataStartFrame	OrigNumFrames
200	200	10	39	mm	200	4883	200
Frame#	Time	Top.Head			L.Acromium			R.Acromium			Sternum			L.ASIS			R.ASIS			V.Sacral			L.Ankle.Lat			L.Toe.Tip			R.Heel			R.Ankle.Med			R.Ankle.Lat			L.Toe.Med			L.Toe.Lat			L.Heel			L.Ankle.Med			L.Shank1			L.Shank2			R.Toe.Tip			R.Toe.Med			R.Toe.Lat			L.Thigh2			L.Thigh1			L.Thigh3			R.Thigh3			R.Thigh1			R.Thigh2			R.Shank1			R.Shank2			R.Shank3			L.Shank3			L.Shank4			R.Shank4			L.Thigh4			R.Thigh4			R.Heel.Lat			R.Heel.Med			L.Heel.Lat			L.Heel.Med		
		X1	Y1	Z1	X2	Y2	Z2	X3	Y3	Z3	X4	Y4	Z4	X5	Y5	Z5	X6	Y6	Z6	X7	Y7	Z7	X8	Y8	Z8	X9	Y9	Z9	X10	Y10	Z10	X11	Y11	Z11	X12	Y12	Z12	X13	Y13	Z13	X14	Y14	Z14	X15	Y15	Z15	X16	Y16	Z16	X17	Y17	Z17	X18	Y18	Z18	X19	Y19	Z19	X20	Y20	Z20	X21	Y21	Z21	X22	Y22	Z22	X23	Y23	Z23	X24	Y24	Z24	X25	Y25	Z25	X26	Y26	Z26	X27	Y27	Z27	X28	Y28	Z28	X29	Y29	Z29	X30	Y30	Z30	X31	Y31	Z31	X32	Y32	Z32	X33	Y33	Z33	X34	Y34	Z34	X35	Y35	Z35	X36	Y36	Z36	X37	Y37	Z37	X38	Y38	Z38	X39	Y39	Z39
4884	24.415	0	0	-0	-341.887	2123.657	229.693	-363.958	2135.083	542.777	-246.687	2049.596	400.449	-228.089	1625.697	298.668	-253.782	1641.21	535.077	-409.674	1655.371	404.661	-325.21	795.703	338.106	-137.13	762.505	331.359	-420.322	739.526	502.916	-310.777	814.478	466.937	-345.995	800.504	551.45	-177.143	749.201	392.888	-225.619	749.662	300.765	-411.442	734.627	393.509	-313.267	811.632	422.841	-263.074	1083.207	290.67	-263.13	1000.093	286.552	-137.41	758.449	543.768	-193.062	748.908	493.539	-234.479	739.234	594.22	-215.694	1312.57	285.985	-222.888	1393.261	270.915	-280.067	1384.182	243.221	-331.224	1321.397	559.218	-270.249	1322.377	581.882	-253.778	1241.714	562.156	-242.1	1078.379	570.311	-263.275	994.603	570.828	-303.065	1095.17	581.294	-325.682	1084.568	276.325	-327.547	996.998	275.314	-324.052	1014.721	582.055	-274.008	1297.712	257.669	-315.739	1238.233	539.804	-382.318	736.589	559.838	-348.133	728.923	463.412	-365.334	725.736	335.285	-345.011	729.253	436.856
4885	24.42	0	0	-0	-342.139	2123.326	228.76	-364.071	2134.867	541.913	-246.825	2049.393	399.538	-227.734	1625.596	297.919	-253.393	1641.115	534.373	-409.351	1655	404.001	-325.236	795.619	337.984	-137.103	762.457	331.338	-420.116	740.459	502.689	-309.984	814.868	466.793	-345.427	801.137	551.332	-177.086	749.192	392.883	-225.618	749.614	300.723	-411.453	734.596	393.472	-313.16	811.499	422.667	-262.907	1082.968	290.164	-263.181	999.907	286.132	-137.285	758.285	543.821	-192.906	748.781	493.534	-234.369	739.255	594.101	-215.323	1312.424	285.285	-222.486	1393.108	270.218	-279.769	1384.082	242.553	-329.492	1321.048	558.607	-268.6	1322.334	581.443	-251.616	1241.75	561.607	-240.074	1078.431	569.857	-261.679	994.805	570.528	-300.992	1095.561	580.838	-325.518	1084.387	275.869	-327.475	996.81	274.974	-322.372	1015.257	581.637	-273.662	1297.566	257.035	-313.518	1237.969	539.145	-382.145	737.327	559.648	-347.927	729.545	463.23	-365.331	725.688	335.251	-344.988	729.185	436.793
4886	24.425	0	0	-0	-342.398	2122.993	227.832	-364.195	2134.664	541.063	-246.968	2049.205	398.638	-227.308	1625.513	297.25	-252.998	1641.033	533.66	-409.021	1654.642	403.345	-325.267	795.537	337.862	-137.077	762.42	331.32	-419.882	741.487	502.415	-309.131	815.31	466.657	-344.83	801.81	551.211	-177.025	749.193	392.882	-225.621	749.567	300.684	-411.474	734.573	393.442	-313.05	811.374	422.488	-262.756	1082.745	289.662	-263.277	999.737	285.716	-137.161	758.128	543.91	-192.733	748.648	493.547	-234.254	739.273	593.985	-214.974	1312.288	284.566	-222.078	1392.959	269.524	-279.478	1383.975	241.893	-327.737	1320.718	558.004	-266.922	1322.314	580.996	-249.435	1241.808	561.073	-237.993	1078.52	569.441	-260.035	995.033	570.216	-298.854	1095.983	580.393	-325.373	1084.223	275.425	-327.423	996.639	274.64	-320.639	1015.82	581.227	-273.349	1297.433	256.405	-311.276	1237.725	538.504	-381.956	738.128	559.432	-347.688	730.242	463.021	-365.33	725.643	335.219	-344.966	729.125	436.73
4887	24.43	0	0	-0	-342.662	2122.663	226.91	-364.331	2134.476	540.227	-247.113	2049.036	397.752	-226.89	1625.459	296.466	-252.598	1640.965	532.937	-408.684	1654.3	402.69	-325.301	795.458	337.739	-137.046	762.395	331.303	-419.613	742.602	502.091	-308.224	815.81	466.532	-344.206	802.521	551.086	-176.961	749.203	392.882	-225.625	749.521	300.646	-411.5	734.555	393.417	-312.941	811.261	422.307	-262.623	1082.542	289.165	-263.398	999.579	285.309	-137.03	757.974	544.045	-192.527	748.518	493.579	-234.132	739.292	593.878	-214.646	1312.162	283.835	-221.652	1392.811	268.849	-279.198	1383.869	241.244	-325.962	1320.408	557.406	-265.214	1322.317	580.531	-247.247	1241.89	560.565	-235.861	1078.642	569.049	-258.341	995.288	569.896	-296.652	1096.439	579.963	-325.246	1084.08	274.996	-327.389	996.488	274.317	-318.851	1016.415	580.83	-273.069	1297.314	255.783	-309.015	1237.502	537.884	-381.747	738.982	559.184	-347.407	731.016	462.782	-365.332	725.602	335.188	-344.945	729.075	436.669
4888	24.435	0	0	-0	-342.933	2122.34	225.994	-364.481	2134.306	539.398	-247.261	2048.889	396.879	-226.463	1625.44	295.749	-252.191	1640.912	532.206	-408.336	1653.98	402.036	-325.337	795.382	337.617	-137.008	762.382	331.289	-419.302	743.793	501.716	-307.276	816.374	466.418	-343.555	803.267	550.954	-176.898	749.223	392.877	-225.63	749.477	300.611	-411.522	734.542	393.393	-312.834	811.163	422.128	-262.508	1082.364	288.672	-263.519	999.43	284.913	-136.884	757.821	544.233	-192.268	748.399	493.634	-234.001	739.311	593.783	-214.339	1312.046	283.099	-221.198	1392.664	268.207	-278.933	1383.768	240.603	-324.167	1320.116	556.813	-263.474	1322.345	580.046	-245.067	1241.995	560.101	-233.677	1078.795	568.671	-256.587	995.575	569.579	-294.389	1096.929	579.549	-325.139	1083.956	274.586	-327.373	996.358	274.006	-317.01	1017.046	580.454	-272.818	1297.211	255.17	-306.738	1237.3	537.286	-381.51	739.879	558.902	-347.074	731.864	462.514	-365.336	725.567	335.16	-344.922	729.036	436.61
4889	24.44	0	0	-0	-343.209	2122.025	225.087	-364.651	2134.156	538.572	-247.409	2048.767	396.02	-226.074	1625.482	294.98	-251.778	1640.875	531.467	-407.979	1653.686	401.383	-325.371	795.309	337.496	-136.963	762.382	331.276	-418.938	745.049	501.292	-306.296	817.005	466.309	-342.873	804.046	550.815	-176.842	749.251	392.863	-225.634	749.436	300.578	-411.532	734.533	393.363	-312.73	811.083	421.952	-262.409	1082.214	288.18	-263.623	999.289	284.526	-136.708	757.664	544.476	-191.937	748.295	493.712	-233.85	739.334	593.704	-214.052	1311.941	282.362	-220.709	1392.515	267.605	-278.684	1383.676	239.971	-322.353	1319.837	556.233	-261.704	1322.399	579.544	-242.917	1242.127	559.702	-231.445	1078.977	568.297	-254.768	995.896	569.276	-292.071	1097.454	579.151	-325.051	1083.852	274.197	-327.372	996.249	273.708	-315.118	1017.715	580.104	-272.592	1297.122	254.567	-304.443	1237.122	536.709	-381.234	740.812	558.584	-346.679	732.781	462.218	-365.34	725.538	335.133	-344.896	729.008	436.552
4890	24.445	0	0	-0	-343.488	2121.721	224.191	-364.844	2134.027	537.742	-247.557	2048.67	395.175	-225.68	1625.488	294.167	-251.356	1640.855	530.725	-407.61	1653.419	400.73	-325.405	795.241	337.379	-136.918	762.392	331.26	-418.511	746.358	500.826	-305.282	817.697	466.199	-342.151	804.858	550.667	-176.8	749.288	392.834	-225.639	749.398	300.548	-411.527	734.525	393.325	-312.628	811.018	421.78	-262.325	1082.093	287.683	-263.702	999.156	284.146	-136.485	757.497	544.77	-191.519	748.209	493.812	-233.664	739.363	593.643	-213.782	1311.846	281.631	-220.196	1392.367	267.038	-278.45	1383.594	239.347	-320.525	1319.568	555.672	-259.907	1322.48	579.032	-240.816	1242.289	559.392	-229.176	1079.185	567.914	-252.891	996.254	568.987	-289.706	1098.011	578.77	-324.98	1083.762	273.828	-327.383	996.158	273.425	-313.176	1018.422	579.784	-272.385	1297.046	253.975	-302.129	1236.968	536.154	-380.904	741.777	558.237	-346.212	733.757	461.897	-365.345	725.515	335.108	-344.868	728.99	436.495
4891	24.45	0	0	-0	-343.77	2121.428	223.306	-365.06	2133.921	536.906	-247.705	2048.6	394.346	-225.277	1625.519	293.398	-250.925	1640.852	529.982	-407.229	1653.183	400.078	-325.438	795.178	337.265	-136.88	762.409	331.236	-418.009	747.707	500.329	-304.22	818.436	466.083	-341.376	805.7	550.507	-176.78	749.336	392.784	-225.643	749.365	300.521	-411.511	734.52	393.28	-312.529	810.966	421.613	-262.253	1082.002	287.175	-263.758	999.032	283.774	-136.191	757.319	545.107	-190.996	748.14	493.931	-233.42	739.405	593.601	-213.525	1311.76	280.912	-219.685	1392.226	266.484	-278.227	1383.523	238.73	-318.683	1319.308	555.137	-258.086	1322.59	578.518	-238.786	1242.483	559.192	-226.876	1079.419	567.518	-250.969	996.65	568.704	-287.302	1098.599	578.403	-324.924	1083.685	273.477	-327.404	996.083	273.155	-311.191	1019.165	579.494	-272.191	1296.981	253.393	-299.794	1236.842	535.618	-380.5	742.771	557.872	-345.663	734.784	461.559	-365.35	725.498	335.083	-344.839	728.98	436.44
4892	24.455	0	0	-0	-344.052	2121.15	222.434	-365.296	2133.836	536.065	-247.848	2048.557	393.532	-224.8	1625.529	292.69	-250.486	1640.866	529.241	-406.836	1652.977	399.427	-325.471	795.119	337.155	-136.861	762.428	331.199	-417.42	749.081	499.815	-303.096	819.203	465.957	-340.532	806.57	550.338	-176.789	749.394	392.711	-225.649	749.338	300.497	-411.489	734.516	393.233	-312.435	810.926	421.452	-262.193	1081.94	286.647	-263.798	998.918	283.41	-135.796	757.133	545.475	-190.354	748.085	494.066	-233.09	739.466	593.578	-213.278	1311.681	280.212	-219.21	1392.099	265.919	-278.012	1383.462	238.122	-316.832	1319.057	554.636	-256.244	1322.73	578.009	-236.832	1242.711	559.11	-224.552	1079.682	567.109	-249.014	997.083	568.422	-284.873	1099.215	578.047	-324.884	1083.617	273.14	-327.432	996.021	272.897	-309.166	1019.939	579.231	-272.005	1296.926	252.822	-297.435	1236.745	535.099	-379.996	743.79	557.505	-345.023	735.848	461.212	-365.356	725.484	335.059	-344.809	728.978	436.386
4893	24.46	0	0	-0	-344.334	2120.887	221.574	-365.546	2133.771	535.226	-247.985	2048.542	392.734	-224.4	1625.553	291.933	-250.036	1640.9	528.504	-406.432	1652.801	398.777	-325.505	795.066	337.048	-136.873	762.443	331.145	-416.729	750.468	499.301	-301.901	819.976	465.814	-339.595	807.461	550.161	-176.828	749.462	392.618	-225.656	749.316	300.475	-411.47	734.516	393.187	-312.35	810.897	421.298	-262.14	1081.91	286.091	-263.829	998.816	283.052	-135.271	756.944	545.858	-189.579	748.046	494.215	-232.641	739.557	593.572	-213.035	1311.606	279.54	-218.797	1391.993	265.325	-277.798	1383.41	237.524	-314.975	1318.82	554.167	-254.387	1322.903	577.511	-234.941	1242.974	559.127	-222.214	1079.979	566.692	-247.034	997.55	568.138	-282.43	1099.857	577.697	-324.858	1083.555	272.811	-327.466	995.969	272.647	-307.107	1020.734	578.982	-271.822	1296.879	252.262	-295.052	1236.678	534.595	-379.368	744.828	557.155	-344.281	736.934	460.864	-365.363	725.473	335.034	-344.784	728.982	436.335
